# 
# Wavefront OBJ file
# Converted by the DEEP Exploration Deep Exploration 5 5.0.2.1477 Release
# Right Hemisphere, LTD
# http://www.righthemisphere.com/
# 
mtllib ObjLib04_MODEL.mtl
# object Cube,3
g Cube_3
v 0.17335 -0.11541 0.00038
v -0.17335 -0.11541 0.00038
v 0.17335 0.11274 0.00038
v 0.17015 0.11594 0.00038
v 0.17290 0.11443 0.00038
v 0.17184 0.11549 0.00038
v -0.17335 0.11274 0.00038
v -0.17015 0.11594 0.00038
v -0.17290 0.11443 0.00038
v -0.17184 0.11549 0.00038
v -0.17040 0.11785 0.00230
v 0.17040 0.11785 0.00230
v 0.17283 0.11720 0.00230
v 0.17461 0.11542 0.00230
v 0.17527 0.11299 0.00230
v 0.17527 -0.11732 0.00230
v -0.17527 -0.11732 0.00230
v -0.17527 0.11299 0.00230
v -0.17461 0.11542 0.00230
v -0.17283 0.11720 0.00230
v -0.17527 0.11299 0.00770
v -0.17527 -0.11732 0.00770
v 0.17527 -0.11732 0.00770
v 0.17527 0.11299 0.00770
v 0.17461 0.11542 0.00770
v 0.17283 0.11720 0.00770
v 0.17040 0.11785 0.00770
v -0.17040 0.11785 0.00770
v -0.17283 0.11720 0.00770
v -0.17461 0.11542 0.00770
v -0.15651 -0.09518 0.00646
v 0.15650 -0.09518 0.00646
v 0.15651 0.02043 0.00645
v 0.15287 0.02406 0.00645
v -0.15286 0.02406 0.00645
v -0.15650 0.02043 0.00645
v -0.15861 -0.09729 0.00771
v 0.15860 -0.09728 0.00771
v 0.15861 0.02130 0.00770
v 0.15375 0.02617 0.00771
v -0.15373 0.02617 0.00770
v -0.15860 0.02130 0.00770
v -0.14314 -0.11732 0.00770
v 0.13951 -0.11732 0.00770
v -0.14314 -0.10250 0.00771
v 0.13951 -0.10250 0.00771
v 0.13951 -0.11732 0.00691
v -0.14314 -0.11732 0.00691
v -0.14314 -0.11791 0.00691
v -0.14314 -0.11791 0.00832
v 0.13951 -0.11791 0.00691
v 0.13951 -0.11791 0.00832
v 0.13951 -0.10250 0.00832
v -0.14314 -0.10250 0.00832
v -0.14314 -0.11727 0.00691
# 55 verticies
vt 0.34209 -0.50014
vt 0.02164 -0.50014
vt 0.01988 -0.49661
vt 0.34386 -0.49661
vt 0.02164 -0.93188
vt 0.01987 -0.93235
vt 0.02461 -0.93781
vt 0.33913 -0.93781
vt 0.33936 -0.94134
vt 0.02437 -0.94134
vt 0.02206 -0.93501
vt 0.02048 -0.93685
vt 0.02304 -0.93697
vt 0.02212 -0.94014
vt 0.34209 -0.93188
vt 0.34386 -0.93235
vt 0.34167 -0.93501
vt 0.34070 -0.93697
vt 0.34161 -0.94014
vt 0.34326 -0.93685
vt 0.39461 -0.75797
vt 0.39125 -0.75125
vt 0.38931 -0.75286
vt 0.39380 -0.76186
vt 0.37841 -0.94134
vt 0.37616 -0.94014
vt 0.69340 -0.94134
vt 0.69565 -0.94014
vt 0.67799 -0.76185
vt 0.69790 -0.93235
vt 0.68249 -0.75286
vt 0.69729 -0.93685
vt 0.69790 -0.49661
vt 0.66821 -0.49661
vt 0.66821 -0.52400
vt 0.68250 -0.53365
vt 0.39126 -0.53754
vt 0.68056 -0.53753
vt 0.38932 -0.53365
vt 0.37391 -0.93235
vt 0.37452 -0.93685
vt 0.68055 -0.75125
vt 0.67719 -0.75797
vt 0.37391 -0.49661
vt 0.40696 -0.49661
vt 0.40696 -0.52400
vt 0.05293 -0.49553
vt 0.31417 -0.49553
vt 0.31417 -0.49671
vt 0.05293 -0.49661
vt 0.66821 -0.49553
vt 0.40696 -0.49553
vt 0.31417 -0.49661
vt 0.66821 -0.49671
# 54 texture verticies
vn -0.00000 -1.00000 -0.00068
vn 0.00000 -1.00000 -0.00068
vn -0.00000 -1.00000 -0.00034
vn 0.38695 -0.92210 -0.00080
vn 1.00000 -0.00000 -0.00024
vn 0.99805 0.06234 -0.00024
vn 0.99891 0.04670 -0.00012
vn 1.00000 -0.00000 -0.00008
vn 0.23279 0.97253 -0.00067
vn -0.44278 0.89663 -0.00062
vn -0.34256 0.93950 -0.00033
vn 0.34253 0.93951 -0.00032
vn 0.96849 0.24904 -0.00029
vn 0.97794 0.20886 -0.00014
vn 0.77363 0.63364 -0.00048
vn 0.83430 0.55132 -0.00021
vn -0.99952 0.03109 -0.00024
vn -1.00000 0.00000 -0.00024
vn -1.00000 0.00000 -0.00016
vn -0.99891 0.04669 -0.00012
vn -0.00000 0.00125 -1.00000
vn -0.00000 0.00084 -1.00000
vn 0.00000 0.00000 -1.00000
vn -0.00000 0.00021 -1.00000
vn -0.00000 0.00125 -1.00000
vn -0.88148 0.47223 -0.00040
vn -0.83431 0.55129 -0.00023
vn -0.98554 0.16946 -0.00027
vn -0.97795 0.20885 -0.00015
vn -0.94360 -0.33108 0.00053
vn -0.99448 -0.10491 0.00045
vn -0.97626 -0.21660 0.00049
vn -0.94361 -0.33106 0.00053
vn -0.00070 0.00632 0.99998
vn 0.17912 -0.00478 0.98382
vn 0.01543 0.00888 0.99984
vn 0.00065 -0.00102 1.00000
vn 0.02794 0.00160 0.99961
vn 0.01908 0.00341 0.99981
vn -0.04403 0.00954 0.99898
vn 0.12312 0.00837 0.99236
vn -0.00402 0.00052 0.99999
vn -1.00000 0.00000 0.00000
vn -0.99806 0.06234 0.00000
vn -0.17810 -0.10313 0.97859
vn -0.00000 -0.15649 0.98768
vn -0.00001 -0.15647 0.98768
vn -0.02510 -0.08902 0.99571
vn 0.99952 0.03108 0.00000
vn 1.00000 -0.00000 0.00000
vn 0.98554 0.16947 0.00000
vn 0.88147 0.47225 0.00000
vn 0.44276 0.89664 0.00000
vn -0.23277 0.97253 0.00000
vn -0.77361 0.63366 0.00000
vn -0.96849 0.24904 0.00000
vn -0.00001 1.00000 0.00114
vn -0.00001 1.00000 0.00114
vn -0.00001 1.00000 0.00114
vn -1.00000 0.00005 0.00040
vn -1.00000 0.00005 0.00040
vn -0.06883 -0.00135 0.99763
vn 0.22534 -0.01393 0.97418
vn 0.29252 -0.00427 0.95625
vn 1.00000 -0.00003 0.00040
vn 0.97627 -0.21656 0.00049
vn 0.99448 -0.10492 0.00045
vn 1.00000 -0.00002 0.00040
vn -0.00000 -1.00000 0.00114
vn 0.00000 -1.00000 0.00114
vn -0.00000 -1.00000 0.00114
vn 0.94364 -0.33097 0.00053
vn 0.94364 -0.33096 0.00053
vn -0.00000 0.03284 0.99946
vn 0.16479 -0.12433 0.97846
vn 0.16031 -0.12677 0.97889
vn -0.00722 0.02794 0.99958
vn -0.00514 0.02792 0.99960
vn 0.08024 -0.04933 0.99555
vn 0.18122 -0.04098 0.98259
vn 0.16060 -0.10858 0.98103
vn -0.00002 -0.15646 0.98768
vn -0.00001 -0.15647 0.98768
vn 0.00000 0.05053 -0.99872
vn -0.00000 0.05050 -0.99872
vn -0.00053 -0.99864 -0.05218
vn -0.00000 -1.00000 0.00000
vn -0.00013 -0.99998 -0.00651
vn 0.00000 -1.00000 0.00000
vn 1.00000 -0.00000 0.00000
vn -0.00000 1.00000 0.00000
vn -1.00000 0.00000 0.00000
vn -0.00000 0.05059 0.99872
vn -0.00000 0.05059 0.99872
vn -0.00000 0.05059 0.99872
vn -0.00000 -1.00000 0.00000
vn 1.00000 0.00008 -0.00166
vn 0.64297 -0.76589 -0.00107
# 98 normals
usemtl Material__1
f  2/1/1 1/2/2 16/3/3 17/4/4
f  1/2/5 3/5/6 15/6/7 16/3/8
f  4/7/9 8/8/10 11/9/11 12/10/12
f  3/5/6 5/11/13 14/12/14 15/6/7
f  5/11/13 6/13/15 13/14/16 14/12/14
f  6/13/15 4/7/9 12/10/12 13/14/16
f  7/15/17 2/1/18 17/4/19 18/16/20
f  2/1/21 7/15/22 9/17/23 10/18/23 8/8/23 4/7/23 6/13/23 5/11/23\
3/5/24 1/2/25
f  8/8/10 10/18/26 20/19/27 11/9/11
f  9/17/28 7/15/17 18/16/20 19/20/29
f  10/18/26 9/17/28 19/20/29 20/19/27
f  34/21/30 33/22/31 39/23/32 40/24/33
f  27/25/34 40/24/35 26/26/36
f  28/27/37 29/28/38 41/29/39
f  21/30/40 42/31/41 30/32/42
f  18/16/20 17/4/19 22/4/43 21/16/44
f  22/33/45 43/34/46 45/35/47 37/36/48
f  16/3/8 15/6/7 24/6/49 23/3/50
f  15/6/7 14/12/14 25/12/51 24/6/49
f  14/12/14 13/14/16 26/14/52 25/12/51
f  13/14/16 12/10/12 27/10/53 26/14/52
f  12/10/12 11/9/11 28/9/54 27/10/53
f  11/9/11 20/19/27 29/19/55 28/9/54
f  20/19/27 19/20/29 30/20/56 29/19/55
f  19/20/29 18/16/20 21/16/44 30/20/56
f  32/37/57 31/38/58 37/36/57 38/39/59
f  33/22/31 32/37/60 38/39/61 39/23/32
f  24/40/62 25/41/63 39/23/64
f  31/38/65 36/42/66 42/31/67 37/36/68
f  35/43/69 34/21/70 40/24/69 41/29/71
f  36/42/66 35/43/72 41/29/73 42/31/67
f  32/37/74 33/22/75 34/21/76 35/43/77 36/42/78 31/38/79
f  23/44/80 24/40/62 39/23/64 38/39/81
f  25/41/63 26/26/36 40/24/35 39/23/64
f  27/25/34 28/27/37 41/29/39 40/24/35
f  29/28/38 30/32/42 42/31/41 41/29/39
f  21/30/40 22/33/45 37/36/48 42/31/41
f  44/45/82 23/44/80 38/39/81 46/46/83
f  51/47/84 49/48/85 55/49/86 17/4/4 16/3/3 23/3/87 44/50/87 47/50/88
f  49/51/89 51/52/89 52/52/89 50/51/89
f  46/46/90 53/46/90 52/52/90 44/45/90
f  54/35/91 53/46/91 46/46/91 45/35/91
f  54/35/92 45/35/92 43/34/92 50/51/92
f  53/46/93 54/35/94 50/51/93 52/52/95
f  51/52/90 47/45/90 44/45/90 52/52/90
f  43/53/96 22/4/96 17/4/4 55/49/97 48/53/98
f  48/34/92 55/54/92 49/51/92 50/51/92 43/34/92
f  46/46/83 38/39/81 37/36/48 45/35/47
# object Cube
g Cube
v -0.22641 0.02414 0.00086
v -0.19623 0.02414 0.00086
v -0.22624 0.12033 0.00088
v -0.19640 0.12033 0.00088
v -0.18781 0.11296 0.00088
v -0.18882 0.11296 0.00577
v -0.23382 0.11296 0.00577
v -0.23483 0.11296 0.00088
v -0.18583 0.10519 0.00088
v -0.18693 0.10519 0.00976
v -0.23570 0.10519 0.00976
v -0.23680 0.10519 0.00088
v -0.18506 0.07772 0.00085
v -0.18619 0.07772 0.01856
v -0.23645 0.07772 0.01856
v -0.23758 0.07772 0.00085
v -0.18098 0.05727 0.00084
v -0.18584 0.05727 0.01831
v -0.23679 0.05727 0.01831
v -0.24166 0.05727 0.00084
v -0.18110 0.04341 0.00084
v -0.18595 0.04341 0.01433
v -0.23668 0.04341 0.01433
v -0.24153 0.04341 0.00084
v -0.18668 0.03157 0.00087
v -0.19063 0.03156 0.00724
v -0.23200 0.03156 0.00724
v -0.23596 0.03157 0.00087
# 28 verticies
vt 0.75876 -0.71839
vt 0.80368 -0.71839
vt 0.81789 -0.69083
vt 0.74454 -0.69083
vt 0.74454 -0.12273
vt 0.75042 -0.12272
vt 0.75876 -0.10064
vt 0.81201 -0.12272
vt 0.80368 -0.10064
vt 0.81789 -0.12273
vt 0.74622 -0.36505
vt 0.75901 -0.38700
vt 0.74773 -0.36505
vt 0.80343 -0.38700
vt 0.81471 -0.36505
vt 0.81622 -0.36505
vt 0.80343 -0.40848
vt 0.75901 -0.40848
vt 0.74622 -0.42915
vt 0.81622 -0.42915
vt 0.74492 -0.34191
vt 0.74328 -0.34191
vt 0.81752 -0.34191
vt 0.81915 -0.34191
vt 0.74328 -0.45569
vt 0.81915 -0.45569
vt 0.74381 -0.26014
vt 0.74213 -0.26015
vt 0.81862 -0.26014
vt 0.82031 -0.26015
vt 0.74213 -0.54428
vt 0.82031 -0.54428
vt 0.74330 -0.19926
vt 0.73403 -0.19927
vt 0.81914 -0.19926
vt 0.82843 -0.19927
vt 0.73403 -0.61116
vt 0.82843 -0.61116
vt 0.74346 -0.15800
vt 0.73422 -0.15800
vt 0.81898 -0.15800
vt 0.82824 -0.15800
vt 0.73422 -0.65508
vt 0.82824 -0.65508
# 44 texture verticies
vn 0.00000 0.00007 -1.00000
vn 0.00000 0.00000 -1.00000
vn 0.00000 -0.00006 -1.00000
vn 0.83705 -0.04767 0.54505
vn 0.87429 -0.04440 0.48336
vn 0.83601 -0.07031 0.54419
vn 0.00000 -0.04520 0.99898
vn 0.00000 -0.05339 0.99857
vn -0.87440 -0.04701 0.48292
vn -0.83601 -0.07031 0.54419
vn -0.83672 -0.05592 0.54477
vn 0.98217 0.03724 0.18427
vn 0.97447 0.07417 0.21192
vn 0.97604 0.04778 0.21226
vn 0.00000 0.03649 0.99933
vn 0.00000 0.04118 0.99915
vn -0.97619 0.04468 0.21229
vn -0.98220 0.03633 0.18431
vn -0.97447 0.07417 0.21192
vn 0.00000 -0.00000 -1.00000
vn 0.00000 0.00000 -1.00000
vn 0.00000 0.00000 -1.00000
vn 0.98753 0.01434 0.15679
vn 0.99410 0.00753 0.10825
vn 0.00000 0.02783 0.99961
vn 0.00000 0.02386 0.99972
vn -0.98754 0.01262 0.15683
vn -0.99409 0.00824 0.10824
vn 0.00000 0.00002 -1.00000
vn 0.00000 0.00004 -1.00000
vn 0.99615 0.00240 0.08764
vn 0.99026 0.00516 0.13913
vn 0.00000 0.01300 0.99992
vn 0.00000 0.00612 0.99998
vn -0.99613 0.00597 0.08765
vn -0.99024 0.00567 0.13922
vn 0.00000 0.00005 -1.00000
vn 0.00000 0.00004 -1.00000
vn 0.97750 0.00269 0.21092
vn 0.95219 0.00214 0.30549
vn 0.00000 -0.00644 0.99998
vn 0.00000 -0.01214 0.99993
vn -0.97747 0.00444 0.21101
vn -0.95220 -0.00217 0.30547
vn 0.00000 0.00002 -1.00000
vn 0.00000 0.00002 -1.00000
vn 0.94405 -0.01437 0.32948
vn 0.90734 -0.02121 0.41986
vn 0.00000 -0.02423 0.99971
vn 0.00000 -0.03065 0.99953
vn -0.94407 -0.01200 0.32952
vn -0.90747 -0.02586 0.41933
vn 0.00000 -0.00004 -1.00000
vn 0.00000 -0.00008 -1.00000
# 54 normals
f  57/55/99 56/56/99 83/57/100 80/58/101
f  80/59/102 81/60/103 57/61/104
f  82/62/105 56/63/106 57/61/106 81/60/105
f  83/64/107 56/63/108 82/62/109
f  60/65/110 59/66/111 61/67/112
f  61/67/113 59/66/114 58/68/114 62/69/113
f  63/70/115 62/69/116 58/68/117
f  58/71/118 59/72/118 60/73/119 63/74/120
f  60/65/110 61/67/112 65/75/121 64/76/122
f  61/67/113 62/69/113 66/77/123 65/75/124
f  62/69/116 63/70/115 67/78/125 66/77/126
f  63/74/120 60/73/119 64/79/127 67/80/128
f  64/76/122 65/75/121 69/81/129 68/82/130
f  65/75/124 66/77/123 70/83/131 69/81/132
f  66/77/126 67/78/125 71/84/133 70/83/134
f  67/80/128 64/79/127 68/85/135 71/86/136
f  68/82/130 69/81/129 73/87/137 72/88/138
f  69/81/132 70/83/131 74/89/139 73/87/140
f  70/83/134 71/84/133 75/90/141 74/89/142
f  71/86/136 68/85/135 72/91/143 75/92/144
f  72/88/138 73/87/137 77/93/145 76/94/146
f  73/87/140 74/89/139 78/95/147 77/93/148
f  74/89/142 75/90/141 79/96/149 78/95/150
f  75/92/144 72/91/143 76/97/151 79/98/152
f  76/94/146 77/93/145 81/60/103 80/59/102
f  77/93/148 78/95/147 82/62/105 81/60/105
f  78/95/150 79/96/149 83/64/107 82/62/109
f  79/98/152 76/97/151 80/58/101 83/57/100
# object Cube,1
g Cube_1
v -0.17335 -0.12452 0.00952
v 0.17335 -0.12452 0.00952
v 0.16229 -0.11720 0.03930
v -0.16229 -0.11720 0.03930
v -0.17335 -0.12452 0.23766
v -0.17015 -0.12452 0.24087
v -0.17290 -0.12452 0.23936
v -0.17184 -0.12452 0.24042
v 0.17335 -0.12452 0.23766
v 0.17015 -0.12452 0.24087
v 0.17290 -0.12452 0.23936
v 0.17184 -0.12452 0.24042
v 0.17040 -0.12261 0.24278
v -0.17040 -0.12261 0.24278
v -0.17283 -0.12261 0.24213
v -0.17461 -0.12261 0.24035
v -0.17527 -0.12261 0.23792
v -0.17527 -0.12261 0.00761
v 0.17527 -0.12261 0.00761
v 0.17527 -0.12261 0.23792
v 0.17461 -0.12261 0.24035
v 0.17283 -0.12261 0.24213
v 0.17527 -0.11720 0.23792
v 0.17527 -0.11720 0.00761
v -0.17527 -0.11720 0.00761
v -0.17527 -0.11720 0.23792
v -0.17461 -0.11720 0.24035
v -0.17283 -0.11720 0.24213
v -0.17040 -0.11720 0.24278
v 0.17040 -0.11720 0.24278
v 0.17283 -0.11720 0.24213
v 0.17461 -0.11720 0.24035
v -0.16229 -0.11720 0.22307
v 0.16229 -0.11720 0.22307
# 34 verticies
vt 0.34291 -0.49007
vt 0.02467 -0.49007
vt 0.02245 -0.49360
vt 0.34561 -0.49360
vt 0.02467 -0.06833
vt 0.02245 -0.06787
vt 0.02568 -0.06241
vt 0.34189 -0.06241
vt 0.34166 -0.05887
vt 0.02591 -0.05887
vt 0.38591 -0.09532
vt 0.68590 -0.09532
vt 0.69340 -0.05887
vt 0.37841 -0.05887
vt 0.02425 -0.06520
vt 0.02136 -0.06337
vt 0.02824 -0.06325
vt 0.02419 -0.06008
vt 0.38591 -0.43502
vt 0.68590 -0.43502
vt 0.34291 -0.06833
vt 0.34561 -0.06787
vt 0.34334 -0.06520
vt 0.34480 -0.06325
vt 0.34339 -0.06008
vt 0.34622 -0.06337
vt 0.69565 -0.06008
vt 0.69729 -0.06337
vt 0.69790 -0.06787
vt 0.69790 -0.49360
vt 0.37391 -0.49360
vt 0.37391 -0.06787
vt 0.37452 -0.06337
vt 0.37616 -0.06008
# 34 texture verticies
vn 0.00000 -0.00068 -1.00000
vn 0.00000 -0.00045 -1.00000
vn 0.00000 -0.00023 -1.00000
vn -1.00000 -0.00024 0.00000
vn -0.99806 -0.00024 0.06234
vn -0.99891 -0.00012 0.04670
vn -1.00000 -0.00008 -0.00000
vn -0.23278 -0.00067 0.97253
vn 0.44277 -0.00062 0.89663
vn 0.34256 -0.00033 0.93950
vn -0.34253 -0.00032 0.93951
vn 0.04968 0.99865 0.01534
vn -0.01434 0.99986 0.00886
vn -0.00743 0.99952 0.03020
vn 0.01114 0.99950 0.02966
vn -0.96849 -0.00029 0.24904
vn -0.97794 -0.00014 0.20887
vn -0.77363 -0.00048 0.63364
vn -0.83430 -0.00021 0.55132
vn -0.00043 1.00000 0.00118
vn 0.05240 0.99859 0.00876
vn 0.99952 -0.00024 0.03109
vn 1.00000 -0.00024 0.00000
vn 1.00000 -0.00016 0.00000
vn 0.99891 -0.00012 0.04669
vn -0.00061 -1.00000 0.00111
vn -0.00094 -1.00000 0.00123
vn -0.00092 -1.00000 0.00122
vn -0.00015 -1.00000 0.00073
vn 0.00000 -1.00000 0.00022
vn 0.00000 -1.00000 0.00022
vn 0.00000 -1.00000 0.00052
vn 0.00000 -1.00000 0.00101
vn 0.00001 -1.00000 0.00047
vn 0.00001 -1.00000 0.00046
vn 0.88147 -0.00040 0.47223
vn 0.83431 -0.00023 0.55130
vn 0.98554 -0.00027 0.16946
vn 0.97795 -0.00015 0.20886
vn -0.04183 0.99883 0.02424
vn -0.08407 0.99635 0.01469
vn -0.11955 0.99282 0.00495
vn 0.02543 0.99966 0.00617
vn -0.05304 0.99846 0.01619
vn 0.03503 0.99939 0.00122
vn 0.08407 0.99635 0.01469
vn 0.04183 0.99883 0.02424
vn 1.00000 0.00000 0.00000
vn 0.99806 0.00000 0.06234
vn 0.00000 -0.00000 -1.00000
vn -0.99952 0.00000 0.03108
vn -1.00000 0.00000 0.00000
vn -0.98554 0.00000 0.16947
vn -0.88146 0.00000 0.47225
vn -0.44276 0.00000 0.89664
vn 0.23277 0.00000 0.97253
vn 0.77361 0.00000 0.63366
vn 0.96849 0.00000 0.24904
# 58 normals
f  85/99/153 84/100/153 101/101/154 102/102/155
f  84/100/156 88/103/157 100/104/158 101/101/159
f  89/105/160 93/106/161 96/107/162 97/108/163
f  117/109/164 116/110/165 112/111/166 113/112/167
f  88/103/157 90/113/168 99/114/169 100/104/158
f  90/113/168 91/115/170 98/116/171 99/114/169
f  91/115/170 89/105/160 97/108/163 98/116/171
f  86/117/172 87/118/173 116/110/165 117/109/164
f  92/119/174 85/99/175 102/102/176 103/120/177
f  89/105/178 91/115/179 90/113/180 88/103/181 84/100/182 85/99/183\
92/119/184 94/121/185 95/122/186 93/106/187
f  93/106/161 95/122/188 105/123/189 96/107/162
f  94/121/190 92/119/174 103/120/177 104/124/191
f  95/122/188 94/121/190 104/124/191 105/123/189
f  111/125/192 112/111/166 116/110/165
f  110/126/193 111/125/192 116/110/165
f  109/127/194 110/126/193 116/110/165
f  116/110/165 87/118/173 108/128/195 109/127/194
f  87/118/173 86/117/172 107/129/196 108/128/195
f  86/117/172 117/109/164 106/130/197 107/129/196
f  115/131/198 106/130/197 117/109/164
f  114/132/199 115/131/198 117/109/164
f  113/112/167 114/132/199 117/109/164
f  103/120/177 102/102/176 107/102/200 106/120/201
f  102/102/155 101/101/154 108/101/202 107/102/202
f  101/101/159 100/104/158 109/104/203 108/101/204
f  100/104/158 99/114/169 110/114/205 109/104/203
f  99/114/169 98/116/171 111/116/206 110/114/205
f  98/116/171 97/108/163 112/108/207 111/116/206
f  97/108/163 96/107/162 113/107/208 112/108/207
f  96/107/162 105/123/189 114/123/209 113/107/208
f  105/123/189 104/124/191 115/124/210 114/123/209
f  104/124/191 103/120/177 106/120/201 115/124/210
# object NoName,691
g NoName_691
v 0.16229 -0.11693 0.03930
v -0.16229 -0.11693 0.03930
v -0.16229 -0.11693 0.22307
v 0.16229 -0.11693 0.22307
# 4 verticies
vt 0.68590 -0.43502
vt 0.38591 -0.43502
vt 0.38591 -0.09532
vt 0.68590 -0.09532
# 4 texture verticies
vn 0.00000 -1.00000 0.00297
vn -0.00000 -1.00000 0.00297
vn 0.00000 -1.00000 0.00297
vn -0.00000 1.00000 -0.00297
vn 0.00000 1.00000 -0.00297
vn -0.00000 1.00000 -0.00297
# 6 normals
f  119/133/211 118/134/212 121/135/211 120/136/213
f  118/134/214 119/133/215 120/136/214 121/135/216
